<svg width="16" height="16" viewBox="0 0 16 16" fill="none" xmlns="http://www.w3.org/2000/svg">
<g clip-path="url(#clip0_9_48392)">
<path d="M8 16C12.4183 16 16 12.4183 16 8C16 3.58172 12.4183 0 8 0C3.58172 0 0 3.58172 0 8C0 12.4183 3.58172 16 8 16Z" fill="#6DA544"/>
<path d="M4.52148 9.56519C4.52148 10.1415 4.98867 10.6087 5.56495 10.6087H8.69539C8.69539 11.0889 9.0847 11.4782 9.56495 11.4782H10.6084C11.0887 11.4782 11.478 11.0889 11.478 10.6087V9.56519H4.52148Z" fill="#F0F0F0"/>
<path d="M11.5648 4.52173V6.95651C11.5648 7.3401 11.2527 7.65217 10.8691 7.65217V8.69563C11.8281 8.69563 12.6083 7.91545 12.6083 6.95651V4.52173H11.5648Z" fill="#F0F0F0"/>
<path d="M4.08677 6.95651C4.08677 7.3401 3.77471 7.65217 3.39111 7.65217V8.69563C4.35008 8.69563 5.13024 7.91545 5.13024 6.95651V4.52173H4.08677V6.95651Z" fill="#F0F0F0"/>
<path d="M10 4.52173H11.0435V6.95651H10V4.52173Z" fill="#F0F0F0"/>
<path d="M8.43445 5.91304C8.43445 6.00895 8.35642 6.08695 8.26054 6.08695C8.16467 6.08695 8.08664 6.00892 8.08664 5.91304V4.52173H7.04317V5.91304C7.04317 6.00895 6.96514 6.08695 6.86926 6.08695C6.77339 6.08695 6.69536 6.00892 6.69536 5.91304V4.52173H5.65186V5.91304C5.65186 6.58432 6.19798 7.13045 6.86926 7.13045C7.12779 7.13045 7.36754 7.0492 7.56492 6.9112C7.76226 7.04917 8.00204 7.13045 8.26057 7.13045C8.31264 7.13045 8.36382 7.12679 8.41417 7.12038C8.34023 7.42504 8.06586 7.65217 7.73882 7.65217V8.69563C8.69779 8.69563 9.47795 7.91545 9.47795 6.95651V5.91304V4.52173H8.43448V5.91304H8.43445Z" fill="#F0F0F0"/>
<path d="M5.65186 7.6521H7.21707V8.69557H5.65186V7.6521Z" fill="#F0F0F0"/>
</g>
<defs>
<clipPath id="clip0_9_48392">
<rect width="16" height="16" fill="white"/>
</clipPath>
</defs>
</svg>
