<svg width="16" height="16" viewBox="0 0 16 16" fill="none" xmlns="http://www.w3.org/2000/svg">
<g clip-path="url(#clip0_9_48514)">
<path d="M8 16C12.4183 16 16 12.4183 16 8C16 3.58172 12.4183 0 8 0C3.58172 0 0 3.58172 0 8C0 12.4183 3.58172 16 8 16Z" fill="#F0F0F0"/>
<path d="M10.7825 7.99988C10.7825 8.69554 9.53666 10.4347 7.99988 10.4347C6.4631 10.4347 5.21729 8.69554 5.21729 7.99988C5.21729 6.46307 6.4631 5.21729 7.99988 5.21729C9.53666 5.21729 10.7825 6.46307 10.7825 7.99988Z" fill="#D80027"/>
<path d="M10.7825 8C10.7825 9.53681 9.53666 10.7826 7.99988 10.7826C6.4631 10.7826 5.21729 9.53681 5.21729 8" fill="#0052B4"/>
<path d="M10.9492 10.4597L11.687 9.72198L12.1788 10.2138L11.441 10.9515L10.9492 10.4597Z" fill="black"/>
<path d="M9.71924 11.6892L10.457 10.9515L10.9488 11.4433L10.2111 12.181L9.71924 11.6892Z" fill="black"/>
<path d="M12.4248 11.9351L13.1625 11.1973L13.6544 11.6892L12.9166 12.4269L12.4248 11.9351Z" fill="black"/>
<path d="M11.1948 13.1648L11.9326 12.4271L12.4244 12.9189L11.6867 13.6566L11.1948 13.1648Z" fill="black"/>
<path d="M11.687 11.1973L12.4247 10.4595L12.9166 10.9514L12.1788 11.6891L11.687 11.1973Z" fill="black"/>
<path d="M10.4575 12.427L11.1953 11.6893L11.6871 12.1811L10.9493 12.9188L10.4575 12.427Z" fill="black"/>
<path d="M12.4282 5.54175L10.4609 3.57445L10.9528 3.08263L12.9201 5.04992L12.4282 5.54175Z" fill="black"/>
<path d="M10.4604 5.05005L9.72272 4.31232L10.2145 3.82051L10.9523 4.55824L10.4604 5.05005Z" fill="black"/>
<path d="M11.6899 6.28003L10.9522 5.5423L11.444 5.05049L12.1817 5.78822L11.6899 6.28003Z" fill="black"/>
<path d="M11.9355 3.57446L11.1978 2.83673L11.6896 2.3449L12.4274 3.08263L11.9355 3.57446Z" fill="black"/>
<path d="M13.166 4.80444L12.4283 4.06671L12.9201 3.57488L13.6578 4.31261L13.166 4.80444Z" fill="black"/>
<path d="M2.83594 11.196L4.80323 13.1633L4.3114 13.6552L2.34411 11.6879L2.83594 11.196Z" fill="black"/>
<path d="M4.80322 11.6875L5.54095 12.4252L5.04915 12.917L4.31142 12.1793L4.80322 11.6875Z" fill="black"/>
<path d="M3.57373 10.458L4.31146 11.1957L3.81963 11.6876L3.0819 10.9498L3.57373 10.458Z" fill="black"/>
<path d="M4.31152 9.72021L6.27882 11.6875L5.78699 12.1793L3.81969 10.212L4.31152 9.72021Z" fill="black"/>
<path d="M4.80322 2.83521L2.83593 4.8025L2.3441 4.31067L4.31139 2.34338L4.80322 2.83521Z" fill="black"/>
<path d="M5.54102 3.57275L3.57372 5.54005L3.08189 5.04822L5.04919 3.08092L5.54102 3.57275Z" fill="black"/>
<path d="M6.2793 4.31104L4.312 6.27833L3.8202 5.78652L5.78749 3.81923L6.2793 4.31104Z" fill="black"/>
</g>
<defs>
<clipPath id="clip0_9_48514">
<rect width="16" height="16" fill="white"/>
</clipPath>
</defs>
</svg>
