<svg width="16" height="16" viewBox="0 0 16 16" fill="none" xmlns="http://www.w3.org/2000/svg">
<g clip-path="url(#clip0_9_47151)">
<path d="M8 16C12.4183 16 16 12.4183 16 8C16 3.58172 12.4183 0 8 0C3.58172 0 0 3.58172 0 8C0 12.4183 3.58172 16 8 16Z" fill="#D80027"/>
<path d="M4.37812 4.86865L5.06875 6.99365H7.30312L5.49687 8.30928L6.1875 10.4343L4.37812 9.12178L2.56875 10.4343L3.2625 8.30928L1.45312 6.99365H3.6875L4.37812 4.86865Z" fill="#FFDA44"/>
<path d="M9.48447 12.3906L8.95635 11.7406L8.1751 12.0437L8.62822 11.3406L8.1001 10.6875L8.90947 10.9031L9.36572 10.2L9.40947 11.0375L10.222 11.2531L9.4376 11.5531L9.48447 12.3906Z" fill="#FFDA44"/>
<path d="M10.5345 10.4843L10.7845 9.68433L10.1001 9.19995L10.9376 9.18745L11.1845 8.38745L11.4563 9.1812L12.2938 9.17183L11.622 9.67183L11.8907 10.4656L11.2063 9.9812L10.5345 10.4843Z" fill="#FFDA44"/>
<path d="M11.9499 5.87173L11.5812 6.62485L12.1812 7.20923L11.353 7.09048L10.9843 7.84048L10.8405 7.01548L10.0093 6.89673L10.753 6.5061L10.6093 5.67798L11.2093 6.26235L11.9499 5.87173Z" fill="#FFDA44"/>
<path d="M9.50645 3.59058L9.44395 4.42495L10.2221 4.74058L9.40645 4.94058L9.34707 5.77808L8.90645 5.06558L8.09082 5.26558L8.63145 4.62495L8.1877 3.91558L8.96582 4.2312L9.50645 3.59058Z" fill="#FFDA44"/>
</g>
<defs>
<clipPath id="clip0_9_47151">
<rect width="16" height="16" fill="white"/>
</clipPath>
</defs>
</svg>
